<svg width="31" height="45" viewBox="0 0 31 45" fill="none" xmlns="http://www.w3.org/2000/svg">
<path d="M22.7503 45H3.24996C2.82664 45 2.4732 44.67 2.43989 44.2402L0.00234875 12.8902C-0.014714 12.6608 0.0616618 12.4331 0.216039 12.264C0.370416 12.0957 0.585732 12 0.812423 12H25.1878C25.4145 12 25.6306 12.0957 25.7842 12.264C25.9369 12.4331 26.0141 12.6592 25.9979 12.8902L23.5603 44.2402C23.527 44.67 23.1736 45 22.7503 45ZM4.00072 43.35H21.9995L24.3087 13.65H1.69156L4.00072 43.35Z" fill="white"/>
<path d="M14.2 13C13.7576 13 13.4 12.6368 13.4 12.1875C13.4 3.65138 8.212 1.85981 4.6 1.64694V12.1875C4.6 12.6368 4.2424 13 3.8 13C3.3576 13 3 12.6368 3 12.1875V0.8125C3 0.363188 3.3576 0 3.8 0C6.4272 0 15 0.879125 15 12.1875C15 12.6368 14.6424 13 14.2 13Z" fill="white"/>
<path d="M17.8242 41C17.7937 41 17.7633 40.9983 17.7328 40.995C17.2807 40.9427 16.9562 40.5328 17.0048 40.0789L21.1223 2.73855C21.1512 2.47966 21.2969 2.25064 21.5176 2.11787C21.74 1.98511 22.0093 1.9627 22.2464 2.05979L30.4815 5.37893C30.9039 5.54904 31.1098 6.03197 30.941 6.45765C30.7722 6.88499 30.2888 7.08995 29.8704 6.92068L22.6401 4.00647L18.6428 40.2623C18.5958 40.6863 18.2384 41 17.8242 41Z" fill="white"/>
<path d="M19.9684 24C17.4708 24 14.518 23.6207 11.6211 23.2486C7.89388 22.7688 3.25543 22.1725 2.36582 23.067C2.05301 23.382 1.54741 23.382 1.2346 23.067C0.921799 22.752 0.921799 22.2457 1.2346 21.9306C2.61062 20.5484 6.15306 20.9253 11.8235 21.6518C16.4052 22.24 21.5972 22.9079 23.8413 21.7787C24.2365 21.5827 24.7181 21.741 24.9157 22.138C25.1125 22.535 24.9533 23.0188 24.5581 23.2165C23.4173 23.7919 21.8172 24 19.9684 24Z" fill="white"/>
</svg>
